<svg version="1.1" id="Layer_1" xmlns="http://www.w3.org/2000/svg" xmlns:xlink="http://www.w3.org/1999/xlink" x="0px" y="0px"
	 width="100%" viewBox="0 0 992 656" enable-background="new 0 0 992 656" xml:space="preserve">
<path fill="#000000" opacity="1.000000" stroke="none" 
	d="
M499.139221,393.132843 
	C497.457092,394.663940 495.335083,395.128845 493.645203,398.235291 
	C525.630127,378.221344 549.838135,352.767548 566.130615,320.143158 
	C580.114075,292.142426 586.392578,262.353973 585.594421,230.058273 
	C570.564758,233.897034 556.370667,237.522369 542.092041,241.169281 
	C541.803528,238.826981 543.470886,238.661774 544.500000,238.111954 
	C567.417175,225.868149 590.358887,213.670212 613.294312,201.460480 
	C615.614563,200.225296 617.914062,199.352417 618.241333,203.242218 
	C619.106873,213.528244 620.097168,223.826004 618.219116,234.112274 
	C618.046936,235.054977 618.139160,236.143799 616.454834,237.118805 
	C613.199402,232.236481 611.787781,226.531189 608.921204,219.888916 
	C608.527771,239.288635 607.376038,257.356171 604.353821,275.360626 
	C608.715271,269.703552 609.379211,262.204773 614.148010,256.768799 
	C616.728821,258.669464 616.044006,260.937958 615.705444,262.952057 
	C604.612671,328.953094 570.557739,379.033844 512.101318,412.145660 
	C508.192230,414.359894 503.985321,416.085175 500.223206,418.512543 
	C495.779785,421.379578 491.816071,420.816986 487.131134,418.888123 
	C463.013336,408.958282 440.831238,396.048340 422.262299,377.516449 
	C398.058319,353.360779 382.540710,324.804596 378.553772,290.437256 
	C377.182678,278.618195 377.396942,266.851227 378.752014,255.075699 
	C378.992279,252.987732 379.260803,250.835251 381.222229,248.841217 
	C377.299408,285.853180 388.953796,317.537598 413.504333,344.668365 
	C438.366058,372.143005 470.017151,384.563904 507.128510,384.983215 
	C505.497253,389.543671 501.624512,390.400208 499.139221,393.132843 
z"/>
<path fill="#000000" opacity="1.000000" stroke="none" 
	d="
M387.180237,288.543579 
	C381.139496,260.002899 385.984741,233.909790 401.892029,209.908905 
	C402.137787,209.538132 402.190887,209.039658 402.742920,207.345734 
	C396.030365,215.035843 391.329224,222.598526 387.062775,231.186096 
	C385.363525,228.292099 386.689545,226.882126 387.310516,225.488937 
	C403.697418,188.724380 432.101196,166.589188 470.972717,157.769958 
	C512.736816,148.294495 551.545410,157.438446 588.312988,177.745590 
	C595.862366,181.915207 603.234924,186.442673 609.718323,192.042816 
	C609.407532,194.635315 607.333069,194.985184 605.832825,195.820419 
	C597.682495,200.358124 589.400879,204.667267 581.347717,209.368912 
	C578.286011,211.156372 576.135437,211.016205 573.299744,208.881332 
	C555.820740,195.722122 536.288574,187.085464 514.620422,183.856918 
	C476.953400,178.244537 443.747223,187.218826 417.274323,215.637421 
	C404.238983,229.630844 397.347565,246.818466 396.404022,265.855408 
	C394.235901,309.599915 414.381653,341.048981 451.241455,362.908722 
	C452.457642,363.629974 454.102356,363.961243 454.415955,365.763763 
	C433.104187,366.313080 394.569336,322.164795 387.180237,288.543579 
z"/>
<path fill="#000000" opacity="1.000000" stroke="none" 
	d="
M637.940979,489.167328 
	C637.330322,492.720490 632.646729,493.287720 629.538391,490.244965 
	C627.287781,488.041809 625.257446,485.561981 623.426575,482.993317 
	C620.307312,478.617126 615.895264,479.961395 612.015381,480.609772 
	C609.248108,481.072174 610.626770,484.233643 610.311157,486.228180 
	C610.016052,488.093109 611.014404,490.350403 608.677185,491.575287 
	C606.131409,492.909485 603.074036,491.309906 603.016174,488.263062 
	C602.855103,479.768402 602.958618,471.268494 602.979736,462.770752 
	C602.985840,460.306976 604.347229,459.097290 606.739258,459.099487 
	C613.896179,459.106110 621.063599,458.591278 628.205444,459.455231 
	C633.238831,460.064087 637.236633,462.027283 638.152344,467.600189 
	C639.020325,472.882416 636.852112,476.651978 632.108765,479.020599 
	C631.677246,479.236084 631.304199,479.568604 630.608887,480.051819 
	C632.417053,483.486176 635.339600,485.979431 637.940979,489.167328 
M615.756226,473.742859 
	C619.234436,473.713074 622.718262,473.792633 626.188965,473.615692 
	C628.561523,473.494751 630.399536,472.281128 630.510376,469.693329 
	C630.616638,467.213684 628.664490,466.314972 626.663269,465.839142 
	C622.746765,464.907776 618.743652,465.545074 614.781799,465.383972 
	C612.135864,465.276398 610.384338,465.902496 610.259094,469.154358 
	C610.125000,472.633942 611.408447,474.119141 615.756226,473.742859 
z"/>
<path fill="#000000" opacity="1.000000" stroke="none" 
	d="
M689.298584,474.233398 
	C689.077576,485.590729 683.264221,491.290192 671.136353,492.069855 
	C666.336853,492.378387 661.498291,492.047302 656.677856,492.073669 
	C653.625916,492.090393 652.069702,490.805817 652.092896,487.608154 
	C652.150757,479.629333 652.124756,471.649658 652.087402,463.670532 
	C652.073303,460.653625 653.280029,458.981537 656.501953,459.039734 
	C662.640930,459.150635 668.792053,458.580994 674.910217,459.641998 
	C683.557617,461.141693 687.548096,465.014526 689.298584,474.233398 
M668.178162,465.411621 
	C658.536133,465.417145 659.370911,464.614136 659.348450,474.326111 
	C659.342651,476.822357 659.432434,479.322357 659.323486,481.813843 
	C659.202942,484.569763 660.359680,485.833038 663.146667,485.671082 
	C664.638733,485.584351 666.141113,485.683380 667.638794,485.682037 
	C676.480774,485.674103 681.312073,482.434021 681.684021,476.268951 
	C682.074524,469.798096 678.501709,466.730652 668.178162,465.411621 
z"/>
<path fill="#000000" opacity="1.000000" stroke="none" 
	d="
M472.340576,465.244537 
	C462.767334,466.545807 458.674011,472.108948 461.450562,479.437469 
	C462.255920,481.563202 463.593140,483.194275 465.615479,484.213928 
	C471.012939,486.935455 476.561676,486.523926 482.142517,484.907471 
	C483.763275,484.438080 484.678009,483.361816 484.557007,481.589203 
	C484.417908,479.551666 482.943817,479.314270 481.359558,479.258270 
	C479.527710,479.193512 477.694153,479.171417 475.863220,479.088501 
	C473.876221,478.998505 472.822723,478.017487 472.849182,475.934631 
	C472.873779,474.001495 474.054840,473.215027 475.708588,473.178009 
	C479.871094,473.084869 484.037567,473.095032 488.200653,473.167969 
	C488.977722,473.181549 489.930786,473.479370 490.486786,473.989960 
	C492.807922,476.121490 491.191589,487.926147 488.351013,489.363403 
	C479.984528,493.596588 471.319092,493.775482 462.722198,490.387207 
	C456.500732,487.935150 452.541199,481.188904 452.910248,474.869995 
	C453.299744,468.200104 457.612030,462.326477 463.997467,460.208740 
	C471.555298,457.702209 479.080841,458.018127 486.464172,461.064056 
	C488.748260,462.006317 490.151520,463.407013 488.934998,466.064423 
	C487.766541,468.616913 485.929810,468.169006 483.954956,467.143311 
	C480.434998,465.315094 476.652557,464.970093 472.340576,465.244537 
z"/>
<path fill="#000000" opacity="1.000000" stroke="none" 
	d="
M378.010132,465.364777 
	C374.689362,465.376770 371.858154,465.450165 369.030334,465.382172 
	C366.178070,465.313568 365.272644,466.751709 365.319855,469.417419 
	C365.367706,472.121246 366.988739,472.198669 369.005188,472.157349 
	C373.164612,472.072144 377.326721,472.072296 381.487183,472.106171 
	C383.686096,472.124084 385.438965,472.699738 385.310333,475.500641 
	C385.189209,478.138000 383.372406,478.257568 381.470001,478.273804 
	C377.308899,478.309296 373.146027,478.369965 368.986603,478.285400 
	C366.113098,478.227020 365.266541,479.634613 365.297607,482.298706 
	C365.328827,484.975861 366.648529,485.735626 369.051025,485.708252 
	C374.376953,485.647552 379.704163,485.680054 385.030701,485.704193 
	C387.190857,485.713959 389.644226,485.426636 389.753357,488.648254 
	C389.856750,491.698944 387.704620,492.074646 385.367981,492.072784 
	C377.711151,492.066681 370.054260,492.012817 362.397552,492.035950 
	C359.267365,492.045410 357.876617,490.596436 357.901093,487.467346 
	C357.963593,479.478119 357.982086,471.487610 357.902588,463.498749 
	C357.870239,460.244415 359.478882,459.049927 362.503235,459.063232 
	C369.993439,459.096130 377.483917,459.058319 384.974091,459.090790 
	C387.272766,459.100769 389.379791,459.403931 389.267883,462.554047 
	C389.159637,465.600891 386.966888,465.299377 384.992889,465.342987 
	C382.829895,465.390747 380.665161,465.360443 378.010132,465.364777 
z"/>
<path fill="#000000" opacity="1.000000" stroke="none" 
	d="
M403.754242,489.559906 
	C403.663696,480.794800 403.601837,472.478333 403.652222,464.162537 
	C403.662537,462.458893 402.948212,460.256531 405.311035,459.430725 
	C407.367523,458.712006 409.203094,459.386536 410.790649,460.874237 
	C415.886688,465.649567 420.995056,470.411987 426.129425,475.146027 
	C427.926514,476.803070 429.812805,478.363403 432.684052,480.859650 
	C432.684052,474.399048 432.705658,469.164734 432.674591,463.930756 
	C432.659851,461.445343 432.722870,459.143463 436.190186,459.254913 
	C439.340515,459.356201 439.371216,461.516937 439.368408,463.787201 
	C439.358948,471.438446 439.406189,479.090057 439.338226,486.740692 
	C439.323029,488.453583 440.051086,490.617798 437.787109,491.550507 
	C435.497833,492.493622 433.592804,491.502625 431.909271,489.932312 
	C427.288116,485.621887 422.673767,481.303986 418.027954,477.020233 
	C415.845245,475.007538 413.596436,473.066559 410.850891,470.624634 
	C409.876190,476.688293 410.554169,482.109131 410.313751,487.483459 
	C410.241486,489.100220 410.602844,491.034088 408.458649,491.631042 
	C406.630432,492.139984 404.789215,492.193634 403.754242,489.559906 
z"/>
<path fill="#000000" opacity="1.000000" stroke="none" 
	d="
M326.334076,465.387329 
	C322.251343,465.372742 318.590698,465.334320 314.930389,465.356842 
	C312.772827,465.370117 311.423553,464.612640 311.400818,462.221893 
	C311.377319,459.748138 312.905640,459.114197 314.969910,459.107086 
	C323.122833,459.079041 331.276093,459.030914 339.428650,459.082764 
	C341.170258,459.093842 343.347626,458.723633 344.090637,460.989838 
	C344.763245,463.041443 344.112213,464.879211 342.489258,466.400696 
	C338.000244,470.609039 333.559448,474.868744 329.090881,479.098938 
	C327.298004,480.796204 325.234375,482.240723 323.751587,484.937744 
	C328.090454,486.310730 332.345581,485.441742 336.494171,485.679932 
	C338.152893,485.775146 339.821014,485.725403 341.484619,485.713287 
	C343.420715,485.699188 344.725555,486.447052 344.826996,488.539856 
	C344.937531,490.820526 343.689240,491.971985 341.509857,491.981720 
	C332.526276,492.021851 323.542419,492.011627 314.558777,491.982605 
	C313.171570,491.978119 311.878632,491.602600 311.464661,490.011200 
	C310.896729,487.827942 311.769958,486.145538 313.322662,484.666412 
	C318.623138,479.616974 323.900604,474.543335 329.187988,469.480164 
	C330.364594,468.353424 331.545685,467.231415 333.477814,465.389160 
	C330.617828,465.389160 328.687042,465.389160 326.334076,465.387329 
z"/>
<path fill="#000000" opacity="1.000000" stroke="none" 
	d="
M574.492188,460.328766 
	C580.415161,470.517273 586.078918,480.430237 591.893677,490.607574 
	C587.803772,492.822754 584.621948,493.028259 582.732605,488.891296 
	C580.997009,485.091125 578.248291,483.952393 574.343445,484.337341 
	C572.037598,484.564636 569.682434,484.532928 567.367004,484.369476 
	C563.444092,484.092499 560.344971,484.727417 558.561890,488.949127 
	C557.028381,492.579803 553.875488,492.540009 550.273987,491.092010 
	C550.713440,487.547272 552.973206,484.985535 554.506104,482.167297 
	C557.999084,475.745148 561.893188,469.538422 565.303528,463.074951 
	C567.462646,458.982941 570.224243,458.014343 574.492188,460.328766 
M569.389160,478.618927 
	C571.415771,478.385101 573.669861,479.375519 575.583374,477.444885 
	C574.809937,473.893433 572.903381,471.024323 570.420654,468.014099 
	C568.319092,471.262146 566.401855,474.078430 565.391174,477.212128 
	C566.324341,478.667908 567.621765,478.270172 569.389160,478.618927 
z"/>
<path fill="#000000" opacity="1.000000" stroke="none" 
	d="
M529.586060,484.926880 
	C532.818359,482.953400 533.606201,480.143097 533.641296,477.019104 
	C533.691833,472.527344 533.700562,468.034454 533.661255,463.542633 
	C533.640686,461.186462 533.845520,459.182251 536.963562,459.147583 
	C539.848511,459.115509 541.277222,460.288696 541.212341,463.294464 
	C541.101135,468.450165 541.329407,473.620697 541.034119,478.763153 
	C540.617004,486.025452 537.229004,490.132904 530.119812,491.802399 
	C525.237488,492.948975 520.176941,492.911774 515.281372,491.704773 
	C508.605927,490.058899 505.446472,486.342773 505.014496,479.330780 
	C504.687714,474.026947 504.924194,468.688049 504.921631,463.364777 
	C504.920441,460.866364 505.766479,459.178741 508.671295,459.248535 
	C511.473877,459.315887 512.377747,460.794128 512.316528,463.415100 
	C512.219482,467.572174 512.287476,471.733490 512.312561,475.892853 
	C512.360107,483.786530 514.585144,486.052063 522.361572,486.060425 
	C524.685425,486.062927 527.028992,486.058075 529.586060,484.926880 
z"/>
</svg>